<svg width="488.1673217773437px" height="122px" xmlns="http://www.w3.org/2000/svg" viewBox="5.916339111328142 14 488.1673217773437 122" style="background: rgba(0, 0, 0, 0);" preserveAspectRatio="xMidYMid"><defs><linearGradient id="editing-outline-gradient" x1="-0.41354545764260087" x2="1.4135454576426008" y1="0.09326335692419985" y2="0.9067366430758002"><stop offset="0" stop-color="#ee4208"></stop><stop offset="1" stop-color="#4139ff"></stop></linearGradient><filter id="editing-outline" x="-100%" y="-100%" width="300%" height="300%"><feMorphology in="SourceGraphic" operator="dilate" radius="1" result="outline"></feMorphology><feComposite operator="out" in="outline" in2="SourceAlpha"></feComposite></filter></defs><g filter="url(#editing-outline)"><g transform="translate(78.22014951705933, 98.68000030517578)"><path d="M27.01-20.61L39.94-21.76L39.94-21.76Q35.33-11.65 35.33 0.06L35.33 0.06L35.33 0.06Q33.60 1.28 31.07 1.28L31.07 1.28L31.07 1.28Q28.54 1.28 26.94 0.10L26.94 0.10L26.94 0.10Q25.34-1.09 25.02-2.30L25.02-2.30L25.02-2.30Q23.42-0.64 20.83 0.32L20.83 0.32L20.83 0.32Q18.24 1.28 15.49 1.28L15.49 1.28L15.49 1.28Q12.74 1.28 10.34 0.38L10.34 0.38L10.34 0.38Q7.94-0.51 6.08-2.50L6.08-2.50L6.08-2.50Q1.98-6.85 1.98-15.10L1.98-15.10L1.98-15.10Q1.98-27.90 8.83-35.58L8.83-35.58L8.83-35.58Q15.87-43.52 28.35-43.52L28.35-43.52L28.35-43.52Q36.99-43.52 40.06-39.04L40.06-39.04L40.06-39.04Q41.02-37.63 41.02-35.94L41.02-35.94L41.02-35.94Q41.02-34.24 40.29-32.80L40.29-32.80L40.29-32.80Q39.55-31.36 38.40-30.21L38.40-30.21L38.40-30.21Q35.65-27.65 32.26-27.65L32.26-27.65L32.26-27.65Q30.91-27.65 29.63-28.10L29.63-28.10L29.63-28.10Q29.89-30.02 29.89-32.26L29.89-32.26L29.89-32.26Q29.89-34.50 29.73-35.52L29.73-35.52L29.73-35.52Q29.57-36.54 29.18-37.38L29.18-37.38L29.18-37.38Q28.35-39.10 26.53-39.10L26.53-39.10L26.53-39.10Q24.70-39.10 22.69-37.15L22.69-37.15L22.69-37.15Q20.67-35.20 19.07-32L19.07-32L19.07-32Q15.55-24.83 15.55-16.19L15.55-16.19L15.55-16.19Q15.55-12.22 17.09-9.41L17.09-9.41L17.09-9.41Q18.75-6.34 21.70-6.34L21.70-6.34L21.70-6.34Q22.72-6.34 23.65-6.85L23.65-6.85L23.65-6.85Q24.58-7.36 24.96-7.74L24.96-7.74L27.01-20.61ZM57.02 1.28L57.02 1.28L57.02 1.28Q42.94 1.28 42.94-11.97L42.94-11.97L42.94-11.97Q42.94-21.38 48.13-27.46L48.13-27.46L48.13-27.46Q53.63-33.92 63.17-33.92L63.17-33.92L63.17-33.92Q70.08-33.92 73.60-30.72L73.60-30.72L73.60-30.72Q77.12-27.52 77.12-20.80L77.12-20.80L77.12-20.80Q77.12-10.56 71.62-4.61L71.62-4.61L71.62-4.61Q66.24 1.28 57.02 1.28ZM58.69-26.56L58.69-26.56L58.69-26.56Q57.92-24.83 57.31-22.24L57.31-22.24L57.31-22.24Q56.70-19.65 55.94-15.55L55.94-15.55L55.94-15.55Q55.17-11.46 55.17-6.40L55.17-6.40L55.17-6.40Q55.17-4.74 55.71-3.65L55.71-3.65L55.71-3.65Q56.26-2.56 57.73-2.56L57.73-2.56L57.73-2.56Q59.20-2.56 60.13-3.26L60.13-3.26L60.13-3.26Q61.06-3.97 61.76-5.63L61.76-5.63L61.76-5.63Q63.04-8.58 64.06-14.05L64.06-14.05L64.06-14.05Q65.09-19.52 65.18-21.89L65.18-21.89L65.18-21.89Q65.28-24.26 65.28-26.02L65.28-26.02L65.28-26.02Q65.28-27.78 64.77-28.93L64.77-28.93L64.77-28.93Q64.26-30.08 62.82-30.08L62.82-30.08L62.82-30.08Q61.38-30.08 60.42-29.18L60.42-29.18L60.42-29.18Q59.46-28.29 58.69-26.56ZM94.85 1.28L94.85 1.28L94.85 1.28Q80.77 1.28 80.77-11.97L80.77-11.97L80.77-11.97Q80.77-21.38 85.95-27.46L85.95-27.46L85.95-27.46Q91.46-33.92 100.99-33.92L100.99-33.92L100.99-33.92Q107.90-33.92 111.42-30.72L111.42-30.72L111.42-30.72Q114.94-27.52 114.94-20.80L114.94-20.80L114.94-20.80Q114.94-10.56 109.44-4.61L109.44-4.61L109.44-4.61Q104.06 1.28 94.85 1.28ZM96.51-26.56L96.51-26.56L96.51-26.56Q95.74-24.83 95.14-22.24L95.14-22.24L95.14-22.24Q94.53-19.65 93.76-15.55L93.76-15.55L93.76-15.55Q92.99-11.46 92.99-6.40L92.99-6.40L92.99-6.40Q92.99-4.74 93.54-3.65L93.54-3.65L93.54-3.65Q94.08-2.56 95.55-2.56L95.55-2.56L95.55-2.56Q97.02-2.56 97.95-3.26L97.95-3.26L97.95-3.26Q98.88-3.97 99.58-5.63L99.58-5.63L99.58-5.63Q100.86-8.58 101.89-14.05L101.89-14.05L101.89-14.05Q102.91-19.52 103.01-21.89L103.01-21.89L103.01-21.89Q103.10-24.26 103.10-26.02L103.10-26.02L103.10-26.02Q103.10-27.78 102.59-28.93L102.59-28.93L102.59-28.93Q102.08-30.08 100.64-30.08L100.64-30.08L100.64-30.08Q99.20-30.08 98.24-29.18L98.24-29.18L98.24-29.18Q97.28-28.29 96.51-26.56ZM138.88-33.92L138.88-33.92L138.88-33.92Q141.18-33.92 142.98-33.41L142.98-33.41L142.98-33.41Q143.04-33.66 143.17-34.37L143.17-34.37L143.49-36.35L143.49-36.35Q143.74-37.63 144.13-39.74L144.13-39.74L145.15-44.80L157.89-46.08L150.78-8.96L150.78-8.96Q150.72-8.58 150.72-7.94L150.72-7.94L150.72-6.91L150.72-6.91Q150.72-5.50 151.42-4.45L151.42-4.45L151.42-4.45Q152.13-3.39 153.28-3.39L153.28-3.39L153.28-3.39Q152-0.38 148.10 0.90L148.10 0.90L148.10 0.90Q146.75 1.28 144.86 1.28L144.86 1.28L144.86 1.28Q142.98 1.28 141.25 0.29L141.25 0.29L141.25 0.29Q139.52-0.70 139.01-2.37L139.01-2.37L139.01-2.37Q137.98-0.70 135.94 0.29L135.94 0.29L135.94 0.29Q133.89 1.28 130.91 1.28L130.91 1.28L130.91 1.28Q127.94 1.28 125.47 0.51L125.47 0.51L125.47 0.51Q123.01-0.26 121.47-1.92L121.47-1.92L121.47-1.92Q118.66-5.18 118.66-12.61L118.66-12.61L118.66-12.61Q118.66-22.21 124.29-28.03L124.29-28.03L124.29-28.03Q129.92-33.92 138.88-33.92ZM138.43-30.08L138.43-30.08L138.43-30.08Q136.06-30.08 134.78-27.52L134.78-27.52L134.78-27.52Q133.50-24.96 132.19-18.62L132.19-18.62L132.19-18.62Q130.88-12.29 130.88-6.59L130.88-6.59L130.88-6.59Q130.88-2.69 133.18-2.69L133.18-2.69L133.18-2.69Q135.23-2.69 136.67-4.74L136.67-4.74L136.67-4.74Q138.11-6.78 138.69-10.18L138.69-10.18L142.14-28.93L142.14-28.93Q140.80-30.08 138.43-30.08ZM177.34 0L169.98 0L181.57-42.24L194.94-42.24L197.89-18.11L209.79-42.24L220.99-42.24L222.14-10.62L222.14-10.62Q222.40-4.35 225.47-2.43L225.47-2.43L225.47-2.43Q224.77-1.15 222.72 0.06L222.72 0.06L222.72 0.06Q220.67 1.28 217.95 1.28L217.95 1.28L217.95 1.28Q215.23 1.28 213.63 0.51L213.63 0.51L213.63 0.51Q212.03-0.26 211.14-1.54L211.14-1.54L211.14-1.54Q209.54-3.84 209.54-8.26L209.54-8.26L209.54-28.03L196.93 0L188.99 0L184.51-28.74L177.34 0ZM242.18 1.28L242.18 1.28L242.18 1.28Q228.10 1.28 228.10-11.97L228.10-11.97L228.10-11.97Q228.10-21.38 233.28-27.46L233.28-27.46L233.28-27.46Q238.78-33.92 248.32-33.92L248.32-33.92L248.32-33.92Q255.23-33.92 258.75-30.72L258.75-30.72L258.75-30.72Q262.27-27.52 262.27-20.80L262.27-20.80L262.27-20.80Q262.27-10.56 256.77-4.61L256.77-4.61L256.77-4.61Q251.39 1.28 242.18 1.28ZM243.84-26.56L243.84-26.56L243.84-26.56Q243.07-24.83 242.46-22.24L242.46-22.24L242.46-22.24Q241.86-19.65 241.09-15.55L241.09-15.55L241.09-15.55Q240.32-11.46 240.32-6.40L240.32-6.40L240.32-6.40Q240.32-4.74 240.86-3.65L240.86-3.65L240.86-3.65Q241.41-2.56 242.88-2.56L242.88-2.56L242.88-2.56Q244.35-2.56 245.28-3.26L245.28-3.26L245.28-3.26Q246.21-3.97 246.91-5.63L246.91-5.63L246.91-5.63Q248.19-8.58 249.22-14.05L249.22-14.05L249.22-14.05Q250.24-19.52 250.34-21.89L250.34-21.89L250.34-21.89Q250.43-24.26 250.43-26.02L250.43-26.02L250.43-26.02Q250.43-27.78 249.92-28.93L249.92-28.93L249.92-28.93Q249.41-30.08 247.97-30.08L247.97-30.08L247.97-30.08Q246.53-30.08 245.57-29.18L245.57-29.18L245.57-29.18Q244.61-28.29 243.84-26.56ZM280 1.28L280 1.28L280 1.28Q265.92 1.28 265.92-11.97L265.92-11.97L265.92-11.97Q265.92-21.38 271.10-27.46L271.10-27.46L271.10-27.46Q276.61-33.92 286.14-33.92L286.14-33.92L286.14-33.92Q293.06-33.92 296.58-30.72L296.58-30.72L296.58-30.72Q300.10-27.52 300.10-20.80L300.10-20.80L300.10-20.80Q300.10-10.56 294.59-4.61L294.59-4.61L294.59-4.61Q289.22 1.28 280 1.28ZM281.66-26.56L281.66-26.56L281.66-26.56Q280.90-24.83 280.29-22.24L280.29-22.24L280.29-22.24Q279.68-19.65 278.91-15.55L278.91-15.55L278.91-15.55Q278.14-11.46 278.14-6.40L278.14-6.40L278.14-6.40Q278.14-4.74 278.69-3.65L278.69-3.65L278.69-3.65Q279.23-2.56 280.70-2.56L280.70-2.56L280.70-2.56Q282.18-2.56 283.10-3.26L283.10-3.26L283.10-3.26Q284.03-3.97 284.74-5.63L284.74-5.63L284.74-5.63Q286.02-8.58 287.04-14.05L287.04-14.05L287.04-14.05Q288.06-19.52 288.16-21.89L288.16-21.89L288.16-21.89Q288.26-24.26 288.26-26.02L288.26-26.02L288.26-26.02Q288.26-27.78 287.74-28.93L287.74-28.93L287.74-28.93Q287.23-30.08 285.79-30.08L285.79-30.08L285.79-30.08Q284.35-30.08 283.39-29.18L283.39-29.18L283.39-29.18Q282.43-28.29 281.66-26.56ZM324.03-33.92L324.03-33.92L324.03-33.92Q326.34-33.92 328.13-33.41L328.13-33.41L328.13-33.41Q328.19-33.66 328.32-34.37L328.32-34.37L328.64-36.35L328.64-36.35Q328.90-37.63 329.28-39.74L329.28-39.74L330.30-44.80L343.04-46.08L335.94-8.96L335.94-8.96Q335.87-8.58 335.87-7.94L335.87-7.94L335.87-6.91L335.87-6.91Q335.87-5.50 336.58-4.45L336.58-4.45L336.58-4.45Q337.28-3.39 338.43-3.39L338.43-3.39L338.43-3.39Q337.15-0.38 333.25 0.90L333.25 0.90L333.25 0.90Q331.90 1.28 330.02 1.28L330.02 1.28L330.02 1.28Q328.13 1.28 326.40 0.29L326.40 0.29L326.40 0.29Q324.67-0.70 324.16-2.37L324.16-2.37L324.16-2.37Q323.14-0.70 321.09 0.29L321.09 0.29L321.09 0.29Q319.04 1.28 316.06 1.28L316.06 1.28L316.06 1.28Q313.09 1.28 310.62 0.51L310.62 0.51L310.62 0.51Q308.16-0.26 306.62-1.92L306.62-1.92L306.62-1.92Q303.81-5.18 303.81-12.61L303.81-12.61L303.81-12.61Q303.81-22.21 309.44-28.03L309.44-28.03L309.44-28.03Q315.07-33.92 324.03-33.92ZM323.58-30.08L323.58-30.08L323.58-30.08Q321.22-30.08 319.94-27.52L319.94-27.52L319.94-27.52Q318.66-24.96 317.34-18.62L317.34-18.62L317.34-18.62Q316.03-12.29 316.03-6.59L316.03-6.59L316.03-6.59Q316.03-2.69 318.34-2.69L318.34-2.69L318.34-2.69Q320.38-2.69 321.82-4.74L321.82-4.74L321.82-4.74Q323.26-6.78 323.84-10.18L323.84-10.18L327.30-28.93L327.30-28.93Q325.95-30.08 323.58-30.08Z" fill="url(#editing-outline-gradient)"></path></g></g><style>text {
  font-size: 64px;
  font-family: Arial Black;
  dominant-baseline: central;
  text-anchor: middle;
}</style></svg>